<?xml version="1.0" standalone="no"?><!DOCTYPE svg PUBLIC "-//W3C//DTD SVG 1.1//EN" "http://www.w3.org/Graphics/SVG/1.1/DTD/svg11.dtd"><svg t="1571541339576" class="icon" viewBox="0 0 1024 1024" version="1.1" xmlns="http://www.w3.org/2000/svg" p-id="4996" width="32" height="32" xmlns:xlink="http://www.w3.org/1999/xlink"><defs><style type="text/css"></style></defs><path d="M512 1024C230.4 1024 0 793.6 0 512 0 310.4 121.6 124.8 307.2 41.6c16-6.4 35.2 0 41.6 16 6.4 16 0 35.2-16 41.6C169.6 172.8 64 332.8 64 512c0 246.4 201.6 448 448 448s448-201.6 448-448c0-179.2-105.6-339.2-268.8-409.6-16-6.4-22.4-25.6-16-41.6s25.6-22.4 41.6-16C902.4 124.8 1024 307.2 1024 512c0 281.6-230.4 512-512 512z" p-id="4997" fill="#ffffff"></path><path d="M512 512c-19.2 0-32-12.8-32-32V32c0-19.2 12.8-32 32-32s32 12.8 32 32v448c0 19.2-12.8 32-32 32z" p-id="4998" fill="#ffffff"></path></svg>